<?xml version="1.0" encoding="utf-8"?>
<!-- Generator: Adobe Adobe Illustrator 24.2.0, SVG Export Plug-In . SVG Version: 6.00 Build 0)  -->
<svg version="1.1" id="Layer_1" xmlns="http://www.w3.org/2000/svg" xmlns:xlink="http://www.w3.org/1999/xlink" width="32pt" height="32pt"
	 viewBox="0 0 216 216" style="enable-background:new 0 0 216 216 ;" xml:space="preserve">
<style type="text/css"> 
	.st0{fill:#5F6754;}
</style>

<path class="st0" d="M153.57,195.7c-0.01,0.47-0.16,0.92-0.17,1.37c-0.06,1.76-0.09,3.53-0.22,5.32c-0.05-1.78-0.02-3.59,0.04-5.44
	c-0.07,1.88-0.1,3.67-0.13,5.46c-0.73,0.03-1.46,0.05-2.32-0.01c-0.21-0.14-0.28-0.19-0.35-0.24c-0.02-3.93-0.04-7.86,0.03-11.91
	c0.16-0.16,0.21-0.21,0.24-0.28h2.65c0,1.72,0,3.41,0.04,5.18c0.03,0.16,0.01,0.22-0.1,0.47c0,0.03,0,0.06,0,0.1
	C153.38,195.66,153.44,195.67,153.57,195.7z M133.75,190.68c-0.13-0.31-0.52-0.7-0.82-0.73c-0.92-0.1-1.86-0.03-2.92-0.03
	c0.24,0.5,0.46,0.8,0.53,1.13c0.17,0.81,0.59,1.76,0.33,2.44c-1.07,2.78-2.36,5.47-3.69,8.48c-0.69-2.38-1.71-4.26-3.75-5.53
	c0.33-0.15,0.51-0.23,0.68-0.32c1.39-0.76,2.17-2.09,1.74-3.75c-0.21-0.82-1.12-1.91-1.87-2.05c-2.18-0.4-4.44-0.39-6.72-0.55v12.66
	h2.99v-11.95c1.37-0.04,1.89,0.9,2.15,1.8c0.49,1.71,0.06,3.19-1.9,4.08c1.93,1.46,2.75,3.37,3.37,5.44
	c0.1,0.32,0.72,0.64,1.13,0.69c0.87,0.11,1.76,0.08,2.63,0.01c0.36-0.03,0.89-0.21,1.01-0.47c0.34-0.76,0.52-1.6,0.75-2.41
	c0.12-0.24,0.24-0.47,0.41-0.78c0.62-1.62,1.2-3.17,1.87-4.95c0.72,1.72,1.34,3.2,1.96,4.76c0.05,0.13,0.09,0.24,0.14,0.36
	c-0.05-0.1-0.1-0.19-0.15-0.28c-1.19,0.02-2.38,0.03-3.72,0.11c-0.28,0.3-0.4,0.54-0.43,0.7c1.54-0.1,2.99-0.14,4.41-0.24
	c0.01,0.03,0.02,0.06,0.04,0.09c0.38,0.94,0.73,1.72,1.08,2.5c0.11,0.13,0.21,0.26,0.43,0.49c1.04,0.1,1.97,0.1,3.12,0.1
	c-0.74-1.81-1.38-3.34-2-4.87C135.62,195.31,134.71,192.98,133.75,190.68z M177.84,77.26c-1.17-0.62-2.05-0.4-2.85,0.72
	c0.76,1.13,1.34,1.29,2.93,0.75C178.76,78.12,178.59,77.66,177.84,77.26z M154.2,87.92c-0.46-0.3-0.9-0.76-1.4-0.86
	c-0.76-0.14-1.85-0.18-1.91,0.86c-0.06,1.11,1.02,0.96,1.9,0.98C153.33,88.57,153.76,88.24,154.2,87.92z M135.37,174.8
	c-0.07-3.28-0.06-6.56-0.01-9.83c0.02-1.08,0.26-2.16,0.36-3.25c0.04-0.38-0.03-0.76-0.07-1.36c-2.46,1.7-5.11,1.32-7.64,1.14
	c-1.58-0.11-3.18-0.79-4.62-1.51c-1.42-0.71-1.66-2.89-0.75-4.19c1.44-2.06,3.52-3.26,5.82-3.96c1.89-0.58,3.92-0.69,5.85-1.16
	c2.55-0.62,4.93,0.08,7.44,0.71c4.14,0.96,6.66,3.57,8.03,7.37c1.28,3.56,0.63,6.87-1.35,10.05c-2.38,3.82-5.73,6.31-9.94,7.73
	c-0.74,0.25-1.47,0.51-1.89,0.66c-0.44,0.9-0.77,1.56-1.1,2.22c-0.17-0.03-0.35-0.06-0.52-0.09c-0.04-0.52-0.07-1.04-0.12-1.7
	c-1.55,0.15-3.09,0.34-4.64,0.44c-0.94,0.06-1.9-0.01-2.84-0.06c-1.06-0.05-2.19,0.04-2.96-0.9c-0.19-0.23-0.16-0.64-0.08-1.02
	c2.03,1.5,4.21,0.99,6.29,0.87c1.07-0.06,2.12-0.48,3.19-0.6C134.85,176.25,135.4,175.98,135.37,174.8z M135.74,159.7
	c-0.02-1.69-0.03-3.37,0-5.23c-0.02-0.18-0.04-0.37,0.07-0.71c0.93-0.23,1.22,0.26,1.17,1.07c-0.12,1.68-0.37,3.35-0.39,5.03
	c-0.04,5.15,0,10.29-0.02,15.57c0.07,0.04,0.14,0.08,0.39,0.2c5.77-1.99,10.35-5.19,12.01-11.5c0.75-2.85,0.2-5.42-1.49-7.7
	c-2.43-3.27-6.03-4.4-9.87-4.77c-2.76-0.27-5.54,0.08-8.12,1.08c-1.8,0.7-3.66,1.55-5.11,2.79c-1.52,1.29-2.18,3.28,0.63,4.15
	c2.67,0.82,5.36,1.52,8.18,0.69c0.74-0.22,1.52-0.28,2.31-0.25c0.06,0.08,0.12,0.15,0.19,0.23
	C135.69,160.2,135.7,160.06,135.74,159.7z M183.44,96.18c-0.21,0.01-0.51,0.49-0.54,0.78c-0.02,0.21,0.3,0.65,0.5,0.67
	c0.72,0.09,1.48,0.16,2.17,0.01c0.53-0.11,0.83-0.62,0.32-1.26C185.03,96.26,184.23,96.15,183.44,96.18z M182.92,82.53
	c0.36,1.01,1.34,0.87,2.13,0.76c0.65-0.09,1.4-0.35,0.92-1.41c-0.83-0.18-1.59-0.39-2.34-0.34
	C183.35,81.56,182.83,82.3,182.92,82.53z M148.71,192.71c0.04,1.65,0.23,3.28-1.74,4.26c-1.16,0.58-2.28,0.57-3.44,0.57
	c-0.7,0.01-0.94,0.25-0.83,1.03c0,1.31,0,2.51,0,3.82h-2.98v-12.63c2.25,0.15,4.45,0.21,6.62,0.49
	C147.55,190.41,148.68,191.72,148.71,192.71z M145.35,192.64c-0.17-1.28-1.15-2.07-2.53-2.12c-0.04,0.07-0.1,0.14-0.1,0.21
	c-0.01,1.59-0.02,3.19-0.03,5.01c0.17,0.39,0.34,0.79,0.52,1.18c0.47-0.26,1.09-0.41,1.38-0.8
	C145.33,195.11,145.52,193.89,145.35,192.64z M166.11,167.88c0.32-1.35,0.4-2.75,0.32-4.16c0.31-0.22,0.6-0.47,0.93-0.67
	c0.27-0.16,0.56-0.27,0.85-0.4c0.07,0.36,0.16,0.72,0.21,1.08c0.01,0.1-0.08,0.21-0.14,0.34c1.37,1.42,2.39,2.95,1.52,5.13
	c-0.3,1.3-1.4,2.22-2.32,1.99C166.51,170.94,165.84,169.03,166.11,167.88z M167.57,169.98c1.56-1.92,1.59-3.08,0.19-4.66
	c-0.07,0.96-0.13,1.66-0.19,2.57V169.98z M155.01,111.21c-0.79-0.55-1.64-0.5-2.5,0.13c-0.15,0.3-0.33,0.74-0.28,0.76
	c0.52,0.29,1.07,0.69,1.63,0.72c0.51,0.03,1.06-0.33,1.54-0.62C155.46,112.17,155.26,111.39,155.01,111.21z M167.76,196.45
	c-0.72-1.57-1.3-2.93-1.97-4.25c-0.42-0.83-0.44-2.05-1.61-2.26c-0.88-0.16-1.81-0.03-2.83-0.03c0.83,1.8,1.52,3.5,2.39,5.11
	c1.06,1.95,1.88,3.91,1.55,6.19c-0.06,0.38-0.01,0.78-0.01,1.23h2.66c0-1.2-0.04-2.31,0.01-3.42c0.03-0.66,0.05-1.39,0.35-1.95
	c1.23-2.36,2.57-4.67,4.01-7.27c-0.74,0.15-1.24,0.26-1.81,0.43C169.59,192.25,168.73,194.21,167.76,196.45z M157.11,158.85
	c0.24-1.28,0.6-2.44,0.69-3.63c0.18-2.36,0.95-4.53,1.71-6.74c0.79-2.31,1.91-4.38,3.65-6.11c1.44-1.43,3.36-1.11,4.51,0.58
	c1.87,2.75,0.83,6.7-0.71,9.04c-2.18,3.33-5.28,5.79-7.93,8.68c-0.36,0.39-0.63,1-0.66,1.52c-0.08,1.92-0.14,3.84,0,5.75
	c0.13,1.78,0.52,3.54,0.79,5.28c0.82-2.07,1.68-4.19,3.48-5.69c0.44-0.37,1.13-0.44,1.71-0.64c0.09,0.67,0.46,1.45,0.23,1.98
	c-1.02,2.4-2.55,4.46-4.5,6.22c-0.38,0.35-0.47,1.02-0.7,1.53c-0.09,0.19-0.22,0.36-0.33,0.54c-0.2-0.15-0.52-0.27-0.57-0.45
	c-0.26-1.1-0.52-2.2-0.64-3.32c-0.28-2.49-0.45-5-0.72-7.49c-0.13-1.15-0.38-2.29-0.57-3.45c-0.13,0.03-0.39,0.14-0.65,0.12
	c-0.2-0.01-0.38-0.19-0.57-0.29c0.12-0.18,0.19-0.45,0.35-0.53C156.89,161.2,157.3,160.24,157.11,158.85z M160.38,173.21
	c0.01,0.09,0.07,0.36,0.17,0.18c0.89-1.59,1.92-3.11,3.06-4.54c0.12-0.15,0.1-0.44,0.09-0.62c0-0.04-0.07-0.46-0.15-0.35
	c-1.16,1.46-2.2,3.01-3.12,4.64C160.33,172.7,160.35,173.01,160.38,173.21z M158.23,159.69c0.85-0.66,1.56-1.05,2.05-1.62
	c1.91-2.2,3.91-4.34,5.55-6.73c1.03-1.5,2.02-3.21,1.93-5.42c-0.36-0.93-0.59-1.95-1.13-2.77c-0.59-0.9-1.59-0.89-2.43-0.14
	c-2.27,2.02-3.21,4.79-4.08,7.55c-0.53,1.7-0.83,3.47-1.19,5.21C158.68,156.96,158.5,158.17,158.23,159.69z M163.8,76.48
	c-0.48,0.02-0.92,0.61-1.39,0.94c0.35,0.33,0.71,0.66,1.16,1.02c0.81-0.23,1.54-0.46,2.24-0.75c0.06-0.03,0.05-0.56-0.04-0.6
	C165.13,76.83,164.45,76.45,163.8,76.48z M152.51,96.25c-0.17,0.16-0.29,0.61-0.19,0.78c0.52,0.87,1.41,0.83,2.24,0.69
	c0.73-0.12,1.1-0.61,0.84-1.48C154.38,95.55,153.41,95.39,152.51,96.25z M151.34,167.28c0.16-0.93,0.32-1.77,0.38-2.61
	c0.03-0.4-0.11-0.82-0.18-1.29c0.25-0.24,0.55-0.56,0.9-0.83c0.2-0.16,0.59-0.39,0.69-0.32c0.25,0.18,0.61,0.71,0.55,0.78
	c-0.59,0.7,0.01,1.05,0.36,1.49c1.62,2.04,1.47,4.33-0.14,5.92c-0.65,0.64-1.28,0.69-1.95,0.01
	C151.02,169.5,150.78,168.43,151.34,167.28z M152.62,169.78c1.48-1.36,1.39-2.71,0.91-4.1c-0.15-0.44-0.46-0.69-0.91,0.04V169.78z
	 M157.46,195.24h-4.04c-0.02,0.07-0.04,0.13-0.08,0.3c0.03,0.11,0.09,0.12,0.33,0.17c1.36,0.04,2.53,0.04,3.82,0.04v6.39
	c0.07,0.02,0.12,0.07,0.26,0.24c0.96,0.1,1.82,0.1,2.64,0.1v-12.52h-2.93V195.24z M116.8,172.52c-1.05,1.62-2.44,2.98-4.43,3.43
	c-0.54,0.12-1.45,0.11-1.65-0.2c-0.29-0.45-0.34-1.38-0.05-1.82c1.25-1.9,2.66-3.69,4.08-5.61c-1.79-0.39-3.76-0.81-5.78-1.25
	c-0.92,2.28-1.98,4.7-4.13,6.37c-0.49,0.38-1.42,0.7-1.89,0.49c-0.61-0.28-1.28-1.07-1.38-1.72c-0.29-1.86-0.32-3.76-0.44-5.64
	c-0.02-0.35,0-0.71-0.26-1.2c-0.55,0.81-1.09,1.62-1.64,2.42c-0.68,1-1.26,2.1-2.07,2.98c-0.46,0.5-1.45,1.06-1.92,0.88
	c-0.92-0.35-1.03-1.21-0.55-2.28c0.68-1.5,0.85-3.23,1.57-4.71c0.71-1.46,1.7-2.83,2.79-4.04c0.67-0.74,1.72-1.32,2.69-1.53
	c0.56-0.12,1.56,0.48,1.91,1.04c0.32,0.52,0.05,1.42-0.02,2.15c-0.01,0.09-0.48,0.26-0.56,0.19c-0.17-0.14-0.26-0.42-0.31-0.66
	c-0.11-0.52-0.16-1.05-0.24-1.57c-0.58,0.19-1.31,0.21-1.7,0.6c-0.97,0.97-1.92,2.01-2.63,3.18c-0.82,1.37-1.4,2.89-2.02,4.37
	c-0.15,0.35-0.08,0.79-0.11,1.2c0.1,0.04,0.2,0.07,0.3,0.11c0.22-0.33,0.43-0.67,0.65-1c1.21-1.82,2.5-3.6,3.59-5.49
	c0.47-0.83,0.99-0.7,1.93-0.62c-0.13,1.62-0.25,3.21-0.38,4.8c-0.03,0.39-0.14,0.8-0.09,1.18c0.23,1.51,0.51,3.02,0.82,4.8
	c2.14-1.69,3.27-3.59,4.45-5.52c0.83-1.35,0.46-2.75,0.87-4.08c0.91-2.91,3.01-4.57,5.77-5.58c1.06-0.38,2.04-0.63,3.14-0.03
	c1.31,0.72,1.51,1.85,1.32,3.1c-0.27,1.71-1.35,2.98-2.6,4.09c-0.13,0.12-0.48-0.02-0.73-0.03c0.07-0.24,0.1-0.5,0.21-0.72
	c0.61-1.21,1.54-2.36,1.79-3.64c0.35-1.77,0.09-1.86-1.85-1.86c-2.47,0.73-4.31,2.15-5.56,4.27c-1.17,1.99-0.51,2.93,1.71,3.34
	c1.38,0.26,2.75,0.52,4.14,0.71c1.28,0.17,1.91-0.96,2.77-1.56c1.25-0.87,2.39-1.91,3.61-2.83c0.15-0.11,0.51,0.05,0.78,0.09
	c-0.13,0.32-0.17,0.75-0.41,0.95c-1.65,1.33-3.33,2.61-5.02,3.92C118.29,169.74,117.65,171.22,116.8,172.52z M116.45,168.78
	c-2.31,1.91-4.63,4.81-4.74,6.45c1.04-0.78,2.09-1.55,3.25-2.45C116.06,171.69,116.74,170.46,116.45,168.78z M81.95,124.8
	c-0.85-0.25-1.73-0.22-2.4,0.67c0.3,1.2,1.3,1.66,2.45,1.14c0.32-0.15,0.7-0.61,0.69-0.9C82.67,125.38,82.28,124.89,81.95,124.8z
	 M54.14,190.44c-0.01,3.78-0.01,7.55,0.01,11.33c0,0.22,0.19,0.44,0.29,0.54c0.01-4.19,0.01-8.27-0.07-12.33
	C54.23,190.14,54.14,190.29,54.14,190.44z M61.18,195.21c-0.01,0.12-0.02,0.24,0.01,0.55c0.07,2.27,0.11,4.35,0.14,6.43
	c0.08,0.04,0.17,0.08,0.39,0.22c0.87,0.06,1.6,0.04,2.33,0.01c0.01-0.08,0.04-0.14,0.16-0.34c0.06-4.11,0.06-8.08,0.06-12.06h-3.1
	V195.21z M193.35,107.45c-0.03,4.06-0.49,8.12-0.76,12.18c-0.03,0.52-0.16,1.04-0.11,1.55c0.23,2.09-1.04,3-2.68,3.85
	c-1.94,1.01-3.72,2.35-5.62,3.44c-4.26,2.44-8.51,4.91-12.86,7.18c-6.19,3.23-12.88,3.7-19.73,3.29c-8.16-0.5-15.95-2.79-23.86-4.56
	c-4.99-1.12-10.05-1.22-15.14-0.71c-4.24,0.43-8.46-0.1-12.66-0.73c-1.74-0.26-3.34-0.21-4.81,1.04c-3.06,2.6-6.78,3.33-10.65,3.32
	c-2.99-0.01-5.97-0.37-8.96-0.42c-2.7-0.05-4.59-1.49-6.65-3c-1.81-1.34-4.02-2.29-6.19-2.97c-5.51-1.73-11.1-3.21-16.65-4.79
	c-4.7-1.34-9.49-2.39-14.38-1.89c-2.82,0.29-5.63,1.05-8.34,1.92c-2.34,0.75-3.66,0.22-4.17-2.29c-0.1-0.5-0.12-1.03-0.12-1.55
	c-0.01-22.08,0-44.16-0.02-66.23c0-1.01,0.34-1.45,1.33-1.75c6.89-2.08,13.61-4.58,19.77-8.36c2.09-1.29,3.99-2.93,6.15-4.06
	c4-2.09,8.19-3.56,12.8-1.92c2.56,0.91,5.22,1.09,8.02,0.93c2.34,0.1,3.94-1.43,5.84-2.2c3.99-1.62,7.98-3.23,11.99-4.78
	c3.12-1.21,6.25-2.37,9.41-3.47c3.84-1.34,7.18-0.64,10.28,2.15c2.34,2.11,5.2,3.53,8.14,4.74c3.08,1.27,6.01,2.81,7.65,5.96
	c0.09,0.18,0.2,0.34,0.28,0.53c0.77,1.82,0.77,1.78,2.72,1.83c4.21,0.11,8.18-1.14,12.24-1.96c2.87-0.58,5.74-1.18,8.74-0.74
	c2.9,0.43,5.04,1.97,6.71,4.18c2.8,3.72,5.96,7.07,9.63,9.92c0.81,0.63,1.74,1.12,2.65,1.61c0.26,0.14,0.69,0.13,0.99,0.03
	c2.83-1.02,5.87-1.55,8.25-3.64c0.56-0.49,1.29-0.79,1.97-1.14c2.58-1.33,5.13-1.41,7.59,0.29c3.28,2.27,6.56,4.54,9.82,6.85
	c1.02,0.73,1.46,1.71,1.45,3.07C193.36,78.58,193.44,93.01,193.35,107.45z M165.81,67.8c0.73,0.85,1.4,1.8,2.25,2.55
	c0.42,0.37,1.17,0.54,1.77,0.52c0.99-0.03,1.98-0.22,2.94-0.46c2.57-0.65,5.11-1.35,7.67-2.04c-0.02-0.1-0.04-0.21-0.06-0.31
	c-0.18-0.07-0.35-0.14-0.72-0.26H165.81z M160.44,64.39c0.92,0.6,1.87,1.3,2.86,1.35c3.15,0.16,6.31,0.07,9.47,0.07
	c0.18,0,0.35-0.11,0.53-0.17c-0.04-0.02-0.07-0.04-0.23-0.12C169.01,63.45,164.69,64.53,160.44,64.39z M160.23,60.72
	c-2.63,0.11-5.26,0.03-8.17,0.03c2.55,1.12,4.88,1.82,7.63,1.51h5.37C163.56,60.96,162,60.64,160.23,60.72z M135.7,57.17h-2.33
	c-0.01,0.15-0.03,0.29-0.04,0.44c3.04,0.35,6.08,0.91,9.13,1.01c5.11,0.17,10.23,0.05,15.34,0.05c0.38,0,0.76,0,1.45,0
	c-1.2-0.92-2.07-1.55-3.41-1.53C149.21,57.21,142.57,57.17,135.7,57.17z M145.47,50.23c-0.11,0.55-0.21,1.02-0.31,1.53
	c0.8,0,1.55,0,2.54,0h3.64c0.05-0.12,0.1-0.25,0.15-0.37c-0.58-0.39-1.13-1.04-1.75-1.11C148.32,50.11,146.88,50.23,145.47,50.23z
	 M144.73,48.2c1.38,0,2.52,0,3.79-0.15c-0.74-1.23-1.81-2.02-3.32-2.61C145.04,46.4,144.89,47.25,144.73,48.2z M135.02,55.24h19.7
	c-1.13-1.56-1.3-1.66-2.96-1.66c-2.16,0-4.32,0-6.72,0C141.56,53.24,138.3,54.28,135.02,55.24z M121.92,47.57
	c0.83,4.38,3.08,7.25,6.96,8.41c0.84-0.64,1.44-1.36,2.21-1.63c1.94-0.7,3.95-1.21,6.12-1.84c1.42-0.4,2.83-0.8,4.25-1.21
	c0.78-0.23,1.1-0.59,0.72-1.49c-0.54-1.28-0.47-2.63,0.06-3.94c0.11-0.27,0.12-0.59,0.21-1.03
	C135.42,45.03,128.96,48.27,121.92,47.57z M82.72,59.63c0.82,0.49,1.59,1.1,2.47,1.46c2.46,1.01,5.02,1.8,7.42,2.94
	c1.05,0.49,2.1,1.45,2.63,2.47c0.65,1.24,1.47,2.06,2.69,2.53c1.37,0.53,2.75,1.13,4.18,1.42c2.92,0.59,5.87,1.06,8.83,1.45
	c1.96,0.26,3.85,0.22,5.83-0.6c2.47-1.01,5.19-1.49,7.84-2.02c2.94-0.6,5.91-1.06,8.32-3.04c0.89-0.73,1.65-1.65,2.6-2.29
	c1.73-1.16,3.57-2.17,4.89-2.96c-3.91-0.97-8.36-1.89-12.69-3.21c-3.49-1.06-6.35-3.14-7.67-6.79c-0.63-1.74-1.22-3.5-1.76-5.27
	c-0.7-2.32-1.99-4.16-4.14-5.33c-0.87-0.48-1.78-0.9-2.69-1.3c-3.01-1.3-5.98-2.65-8.48-4.84c-0.64-0.56-1.37-1-2.11-1.54
	c-0.05,0.23-0.11,0.36-0.09,0.46c0.49,2.41,0.76,4.77-0.81,6.96c-0.47,0.65-0.45,1.45,0.23,2.05c0.78,0.68,1.58,1.34,2.37,2.01
	c1.33,1.14,2.71,2.22,3.97,3.43c0.84,0.81,0.79,1.49-0.23,2.03c-1.36,0.71-2.81,1.34-4.3,1.69c-3.29,0.78-6.63,1.38-10.13,2.12
	c-1.54,0.53-3.11,0.99-4.61,1.63c-0.98,0.42-2,0.95-2.73,1.69C83.77,57.57,83.31,58.67,82.72,59.63z M125.95,91.53
	c0.6-0.41,1.19-0.81,1.79-1.22c-0.06-0.07-0.12-0.13-0.18-0.2h-13.98c1.81,1.28,3.75,1.54,5.82,1.44
	C121.5,91.45,123.62,91.53,125.95,91.53z M120.34,93.58c-0.03,0.08-0.06,0.17-0.09,0.25c0.57,0.28,1.13,0.57,1.87,0.88
	c1.04,0.15,1.77-0.23,2.24-1.13H120.34z M128.23,88c1.3,0.04,2.18-0.38,2.89-1.49h-29.13c-0.02,0.12-0.03,0.23-0.05,0.35
	c2.73,0.37,5.46,0.88,8.21,1.07c2.66,0.18,5.35,0.04,8.26,0.04C121.68,87.97,124.96,87.9,128.23,88z M135.29,82.95H72.43
	c1.6,0.9,2.94,1.49,4.59,1.47c5.08-0.07,10.16-0.03,15.48-0.03c12.88,0,25.75,0.02,38.63-0.02
	C132.57,84.37,134.15,84.42,135.29,82.95z M135.61,80.9c-2.36-1.23-4.73-1.6-7.26-1.56c-6.11,0.11-12.23,0.04-18.58,0.04H67.91
	c0.87,1.2,1.8,1.55,3.09,1.55c20.78-0.04,41.56-0.03,62.35-0.03H135.61z M79.21,72.43c-1.4-0.01-2.27,0.64-3.48,1.55h35.31
	c-1.18-0.25-2.36-0.38-3.54-0.56c-2.12-0.31-4.24-0.89-6.36-0.92C93.83,72.39,86.52,72.51,79.21,72.43z M95.89,70.38
	c-0.67-0.44-1.28-0.67-1.65-1.1c-0.74-0.88-1.7-0.91-2.62-0.75c-2.9,0.5-5.77,1.11-8.7,1.85H95.89z M74.64,75.96
	c-2.29,0-4.54,0.1-6.76,0.66c-0.89,0.22-1.82,0.29-2.74,0.43c0.01,0.17,0.01,0.34,0.02,0.51c19.74,0,39.49,0,59.47,0h2.38
	c0.01-0.11,0.02-0.21,0.02-0.32c-1.84-0.53-3.55-1.32-5.6-1.31C105.84,76.02,90.24,75.99,74.64,75.96z M62.88,49.98
	c-0.45-0.19-1.04-0.29-1.51-0.18c-1.89,0.46-3.75,1.04-5.64,1.53c-1.23,0.32-2.55,0.37-3.71,0.84c-3.18,1.27-6.3,2.7-9.59,4.16
	l-18.39,9.71c1.86,0.61,3.61,0.77,5.26,1.23c5.27,1.46,10.58,2.6,16.02,3.16c4.9,0.51,9.66,1.57,14.19,3.58
	c0.83,0.37,1.66,0.96,2.52,1.03c4.76,0.35,9.2-0.81,13.18-3.43c3.78-2.48,7.91-3.9,12.35-4.54c1.51-0.22,3.03-0.39,4.55-0.58
	c0.04-0.12,0.07-0.24,0.11-0.36c-1.19-0.56-2.33-1.32-3.58-1.65c-5.45-1.41-10.21-3.9-14.04-8.14c-1.6-1.78-3.6-3.08-5.96-3.85
	C66.67,51.83,64.81,50.79,62.88,49.98z M31.17,59.68h-9.61v1.4h3.73C27.39,61.12,29.54,61.32,31.17,59.68z M48.33,43.39
	c3.52,0.5,18.01,0.23,18.58-0.34c-0.32-0.02-0.59-0.07-0.86-0.06c-2.86,0.13-5.63-0.39-8.34-1.24c-2.16-0.68-4.24-0.52-6.5,0.29
	C50.34,42.46,49.46,42.87,48.33,43.39z M42.67,47.12c6.27,0,12.29-0.04,18.31,0.03c1.33,0.02,2.17-0.63,3.29-1.55
	c-5.18,0-10.08,0-15.22,0c-1,0-2,0.08-2.99-0.02C44.68,45.45,43.8,46.22,42.67,47.12z M36.84,50.29c3.97,0.2,7.85,0.34,11.72,0.15
	c2.45-0.12,4.87-0.74,7.31-1.13c-0.23-0.28-0.42-0.33-0.62-0.33c-5.11,0-10.23,0-15.34,0.01c-0.31,0-0.62,0.11-1.11,0.25
	C38.15,49.58,37.5,49.94,36.84,50.29z M28.35,53.72l0.1,0.34c3.91,0,7.82-0.09,11.72,0.04c1.93,0.06,3.57-0.54,5.14-1.63
	c-4.31,0-8.63-0.1-12.93,0.05C31.03,52.57,29.7,53.3,28.35,53.72z M21.54,57.6c2.9,0,5.72,0,8.79,0c1.4,0,2.82,0.16,4.19-0.05
	c1.2-0.18,2.34-0.78,3.5-1.2c-0.05-0.1-0.09-0.2-0.14-0.3H21.54V57.6z M21.58,65.08c1.26-0.71,2.38-1.33,3.49-1.96
	c-1-0.19-1.91-0.23-2.82-0.16c-0.26,0.02-0.5,0.38-0.74,0.82C21.53,64.16,21.55,64.54,21.58,65.08z M88.24,124.25
	c0.79-4.46,2.82-8.33,6-11.57c2.61-2.65,5.42-5.06,8.74-6.79c3.56-1.86,7.14-3.69,10.72-5.52c2.26-1.15,4.53-2.28,6.8-3.42
	l-0.01-0.45c-1.59-0.95-3.19-1.9-4.77-2.87c-0.6-0.37-1.11-0.51-1.87-0.26c-1.41,0.47-2.41-0.36-2.17-1.77
	c-1.9-0.64-3.79-1.46-5.76-1.9c-2.94-0.66-5.93-1.36-8.92-1.49c-5.93-0.26-11.9,0.19-17.8-0.8c-4.61-0.78-8.77-2.53-12.35-5.63
	c-1.73-1.5-3.52-2.98-5.43-4.24c-4.38-2.9-9.38-4.13-14.49-4.94c-2.59-0.41-5.24-0.52-7.8-1.02c-3.98-0.78-7.91-1.85-11.88-2.69
	c-1.84-0.39-3.74-0.54-5.67-0.8v56.4c4.39-1.8,8.89-2.43,13.53-2.42v-5.11c-2.1,0.74-4.18,1.49-6.28,2.2
	c-0.86,0.29-1.89,0.23-2.1-0.71c-0.22-0.99,0.93-0.97,1.6-1.22c1.3-0.49,2.67-0.83,3.91-1.44c2.67-1.32,3.26-2.53,2.87-5.04
	c-2.08,0.75-4.17,1.55-6.31,2.26c-0.85,0.28-2.28-0.4-2.07-0.81c0.26-0.5,0.91-0.89,1.48-1.13c1.42-0.6,2.94-1,4.34-1.66
	c2.33-1.09,2.95-2.43,2.49-5.1c-0.51,0.27-0.96,0.61-1.47,0.78c-1.88,0.6-3.77,1.19-5.69,1.66c-0.32,0.08-0.8-0.48-1.21-0.74
	c0.32-0.34,0.58-0.82,0.98-0.98c1.22-0.47,2.52-0.74,3.74-1.23c3.22-1.3,4.24-2.97,3.64-5.86c-0.38,0.26-0.72,0.52-1.09,0.73
	c-1.81,1.04-3.73,1.81-5.83,1.92c-0.46,0.03-0.96-0.51-1.44-0.78c0.4-0.36,0.74-0.84,1.21-1.05c1.8-0.81,3.73-1.39,5.45-2.34
	c1.9-1.05,2.22-2.27,1.69-4.51c-0.11,0.03-0.22,0.05-0.33,0.09c-2.02,0.8-4.04,1.63-6.08,2.39c-0.33,0.12-0.81,0.05-1.15-0.09
	c-0.32-0.14-0.75-0.49-0.75-0.76c0-0.27,0.4-0.67,0.71-0.81c1.63-0.71,3.31-1.3,4.92-2.03c2.81-1.28,3.21-2.29,2.67-5.02
	c-0.15,0.07-0.28,0.15-0.42,0.21c-2.07,0.79-4.12,1.66-6.23,2.31c-0.44,0.14-1.12-0.5-1.68-0.78c0.4-0.38,0.77-0.79,1.2-1.13
	c0.17-0.13,0.46-0.1,0.69-0.16c2.61-0.64,4.93-1.75,6.64-3.94c0.67-0.86,1.82-0.87,2.61,0.02c1.99,2.24,4.45,3.57,7.39,4.1
	c0.57,0.1,1.4,0.32,1.08,1.07c-0.19,0.44-1.01,0.81-1.56,0.84c-0.68,0.04-1.41-0.25-2.07-0.51c-1.51-0.58-3-1.22-4.63-1.89
	c0.09,1.09-0.08,2.22,0.33,3.07c0.38,0.78,1.32,1.41,2.15,1.81c1.5,0.72,3.12,1.18,4.65,1.84c0.46,0.2,0.78,0.73,1.16,1.11
	c-0.55,0.27-1.08,0.6-1.66,0.78c-0.26,0.08-0.62-0.09-0.92-0.2c-1.85-0.68-3.7-1.38-5.52-2.07c-0.37,2.46,0.45,4.14,2.62,5.01
	c1.43,0.57,2.93,0.96,4.36,1.54c0.46,0.19,0.77,0.73,1.15,1.11c-0.48,0.27-0.97,0.76-1.45,0.75c-0.85-0.02-1.73-0.26-2.55-0.56
	c-1.42-0.52-2.8-1.16-4.2-1.75c-0.11,3.12,0.46,4.12,3.34,5.38c1.2,0.53,2.51,0.78,3.73,1.26c0.44,0.18,0.77,0.65,1.14,0.99
	c-0.46,0.29-0.9,0.63-1.4,0.86c-0.22,0.1-0.56,0.03-0.82-0.06c-1.47-0.49-2.94-0.98-4.39-1.53c-0.56-0.21-1.04-0.61-1.63-0.97
	c0,0.64,0.08,1.14-0.01,1.6c-0.27,1.42,0.57,2.18,1.56,2.93c1.7,1.29,3.62,2,5.68,2.41c0.62,0.13,1.33,0.42,0.94,1.15
	c-0.22,0.41-1.01,0.8-1.49,0.75c-1.05-0.13-2.1-0.48-3.1-0.86c-1.17-0.45-2.3-1.02-3.66-1.64c0.1,1.18-0.08,2.32,0.35,3.13
	c0.42,0.8,1.39,1.43,2.26,1.85c1.57,0.75,3.26,1.25,4.87,1.93c0.36,0.15,0.56,0.65,0.84,0.99c-0.36,0.27-0.68,0.64-1.09,0.79
	c-0.29,0.11-0.71,0-1.04-0.12c-2.01-0.68-4.02-1.39-6.06-2.11v5.08c3.08,0.77,6.09,1.49,9.08,2.28c2.69,0.71,5.36,1.52,8.05,2.25
	c0.09,0.03,0.2,0.03,0.3,0.03c0.4,0.14,0.8,0.25,1.22,0.32c0.37,0.36,1.06,0.33,1.58,0.47c3.44,0.95,6.96,1.66,10.12,3.43
	c0.43,0.24,0.87,0.48,1.3,0.71c0-2.44,0-4.78,0.03-7.36v-3c-0.11,0.05-0.25,0.1-0.39,0.16c-1.98,0.8-3.95,1.63-5.95,2.38
	c-0.85,0.32-1.64-0.05-1.95-0.86c-0.07-0.17,0.85-0.87,1.41-1.1c1.06-0.45,2.26-0.59,3.27-1.12c3.45-1.79,4.08-2.5,3.61-5.69
	c-0.53,0.3-1.02,0.68-1.57,0.86c-1.8,0.6-3.61,1.19-5.45,1.62c-0.37,0.09-0.9-0.55-1.36-0.85c0.36-0.31,0.67-0.74,1.08-0.9
	c1.19-0.45,2.45-0.71,3.62-1.19c3.17-1.29,4.19-2.96,3.63-5.84c-0.28,0.18-0.54,0.36-0.8,0.52c-1.84,1.18-3.85,1.94-6.01,2.11
	c-0.48,0.04-1.02-0.53-1.53-0.81c0.41-0.34,0.78-0.82,1.25-1.01c1.33-0.54,2.76-0.83,4.04-1.46c2.86-1.39,3.51-2.67,3.13-5.19
	c-2.03,0.73-4.1,1.52-6.2,2.22c-0.83,0.28-1.9,0.25-2.14-0.68c-0.26-1,0.91-0.96,1.56-1.24c1.71-0.73,3.54-1.28,5.1-2.26
	c2.01-1.26,2.25-2.36,1.6-4.47c-0.14,0.06-0.28,0.13-0.42,0.19c-2.07,0.79-4.11,1.65-6.22,2.3c-0.44,0.14-1.11-0.5-1.67-0.77
	c0.4-0.38,0.76-0.82,1.22-1.1c0.32-0.2,0.77-0.17,1.15-0.28c2.31-0.64,4.38-1.69,5.96-3.55c1.06-1.25,1.86-1.36,2.95-0.14
	c1.95,2.17,4.37,3.42,7.2,3.96c0.62,0.12,1.47,0.32,1.09,1.15c-0.19,0.42-1.04,0.73-1.6,0.74c-0.73,0.01-1.49-0.27-2.19-0.54
	c-1.5-0.59-2.98-1.25-4.84-2.04c0.26,1.28,0.13,2.7,0.77,3.28c1.34,1.23,3.05,2.09,4.67,2.97c0.79,0.43,1.76,0.53,2.6,0.88
	c0.29,0.12,0.64,0.58,0.61,0.86c-0.03,0.29-0.45,0.74-0.74,0.77c-0.61,0.07-1.29,0.04-1.87-0.16c-1.86-0.64-3.69-1.37-5.56-2.07
	c0,0.35,0.06,0.76-0.01,1.15c-0.2,1.18,0.27,1.98,1.16,2.76c1.66,1.45,3.64,2.09,5.71,2.6c0.62,0.15,1.53,0.26,1.34,1.19
	c-0.19,0.89-1.06,0.82-1.78,0.79c-0.19-0.01-0.39-0.07-0.58-0.14c-1.92-0.69-3.84-1.39-5.78-2.1c-0.13,1.49-0.41,3.19,1.42,4.1
	c1.7,0.85,3.48,1.53,5.21,2.3c0.61,0.27,1.21,0.58,1.81,0.87c0.02,0.23,0.14,0.18,0.25,0.21c0.7,0.15,1.41,0.29,2.08,0.51
	c0.06,0.02,0,0.88-0.13,0.91c-0.69,0.2-1.41,0.26-2.13,0.36c-0.07,0.01-0.18-0.03-0.22-0.08c-0.67-0.81-1.68-0.67-2.55-0.95
	c-1.95-0.63-3.85-1.37-5.79-2.07c0,0.28,0.08,0.79-0.01,1.27c-0.26,1.36,0.51,2.13,1.48,2.86c1.66,1.26,3.52,2.01,5.55,2.42
	c0.61,0.12,1.49,0.28,1.14,1.13c-0.17,0.42-1.09,0.86-1.57,0.77c-1.36-0.25-2.69-0.72-4-1.2c-0.84-0.31-1.63-0.78-2.57-1.24
	c0,1.18,0,2.18,0,3.19c0,2.56,0.11,5.12-0.05,7.67c-0.08,1.31,0.4,1.73,1.54,2.01c3.39,0.84,6.82,0.72,10.26,0.69
	c2.12-0.02,2.52-0.4,2.92-2.69c-1.07,0.05-2.17,0.12-2.76-1.46c1.03-0.26,1.97-0.51,2.97-0.76
	C87.93,128.18,87.9,126.19,88.24,124.25z M107.18,121.59c4.58-2.06,9.47-2.74,14.45-2.83c2.99-0.06,5.99-0.08,8.98-0.18
	c0.33-0.01,0.92-0.43,0.93-0.68c0.09-1.59,0.04-3.18,0.04-4.95c-0.49,0.2-0.8,0.34-1.12,0.45c-1.79,0.65-3.58,1.3-5.37,1.92
	c-0.82,0.28-1.52-0.09-1.71-0.83c-0.06-0.24,0.74-0.85,1.24-1.08c1.54-0.71,3.12-1.32,4.68-1.97c2.2-0.9,2.7-2.59,2.23-4.51
	c-2.08,0.72-4.19,1.51-6.34,2.17c-0.91,0.28-1.7-0.08-2.1-1.26c0.6-0.26,1.16-0.53,1.74-0.74c1.2-0.42,2.46-0.71,3.63-1.22
	c2.72-1.19,3.47-2.6,2.98-5.28c-1.63,0.7-3.28,1.38-4.9,2.1c-1.47,0.66-2.67,0.39-3.45-0.95c0.55-0.29,1.07-0.63,1.64-0.86
	c1.44-0.57,2.94-0.99,4.34-1.64c2.32-1.07,2.87-2.3,2.39-4.7c-2.03,0.7-4.09,1.41-6.14,2.12c-0.55,0.19-1.17,0.26-1.65,0.55
	c-1.88,1.11-3.65,2.42-5.58,3.42c-3.54,1.82-7.21,3.39-10.75,5.22c-5.18,2.67-9.83,6.07-13.21,10.92c-1.92,2.77-2.89,5.94-3.19,9.3
	c-0.22,2.52-0.39,5.05-0.66,7.64c0.02,0.06,0.04,0.12,0.05,0.17c0.05-0.04,0.09-0.08,0.32-0.1c3.56-1.3,6.09-4.03,8.75-6.51
	C101.8,125.09,104.21,122.93,107.18,121.59z M190.75,111.33c-3.05,2.57-6.45,3.73-9.96,4.51c-2.55,0.57-5.16,0.91-7.76,1.27
	c-3.77,0.53-7.55,1.04-11.34,1.45c-3.99,0.44-7.99,0.78-11.99,1.1c-4.48,0.35-8.96,0.74-13.44,0.9c-4.19,0.15-8.4-0.03-12.6,0.06
	c-2.26,0.05-4.51,0.34-6.98,0.56c-6.6,0.63-12.02,3.47-16.35,8.81c0.53,0.28,1.02,0.75,1.53,0.78c3.62,0.22,7.26,0.62,10.87,0.45
	c5.17-0.24,10.3-0.32,15.39,0.78c6.9,1.49,13.68,3.6,20.75,4.28c5.19,0.5,10.37,0.7,15.49-0.61c5.14-1.31,9.7-3.89,14.22-6.54
	c3.75-2.2,7.43-4.55,11.11-6.86c0.22-0.14,0.32-0.58,0.35-0.89c0.16-1.55,0.3-3.1,0.41-4.66
	C190.57,115.02,190.64,113.3,190.75,111.33z M190.85,105.31c-0.17-7.42-0.04-14.84-0.04-22.26c0-5.44-0.02-10.88-0.03-16.32
	c0-0.33-0.06-0.66-0.11-1.16c-0.93,0.56-1.66,1.03-2.42,1.44c-5.66,3.09-11.74,4.87-18.1,5.83c-4.8,0.73-9.59,1.51-14.33,2.54
	c-4.74,1.03-9.18,2.95-13.35,5.44c-5.4,3.23-9.99,7.4-14.15,12.28c-0.04,0.09-0.07,0.19-0.11,0.28c0.16-0.05,0.31-0.09,0.63-0.18
	c1.01-0.83,2.05-1.63,3.03-2.5c1.01-0.9,1.8-0.93,2.67,0.07c1.83,2.1,4.13,3.35,6.85,3.87c0.39,0.07,0.78,0.19,1.12,0.39
	c0.24,0.14,0.57,0.48,0.54,0.68c-0.05,0.29-0.34,0.64-0.61,0.77c-0.38,0.17-0.87,0.28-1.27,0.2c-0.93-0.19-1.86-0.44-2.75-0.79
	c-1.24-0.48-2.44-1.07-3.68-1.63c-0.49,2-0.04,3.52,1.8,4.47c0.88,0.46,1.71,1.03,2.62,1.41c0.98,0.41,2.06,0.59,3.05,1
	c0.36,0.15,0.59,0.64,0.87,0.97c-0.38,0.24-0.75,0.69-1.13,0.68c-0.9-0.01-1.85-0.1-2.7-0.39c-1.56-0.55-3.06-1.27-4.78-2
	c0.15,1.09-0.04,2.32,0.49,3.03c0.74,1.01,1.92,1.79,3.06,2.38c1.25,0.64,2.69,0.9,4,1.42c0.42,0.17,0.71,0.65,1.06,0.99
	c-0.39,0.3-0.75,0.65-1.18,0.88c-0.2,0.1-0.54,0.01-0.79-0.07c-2.16-0.72-4.32-1.46-6.62-2.25c0.13,0.91-0.05,2.16,0.48,2.91
	c1.2,1.69,3.04,2.64,5.05,3.2c0.8,0.22,1.61,0.44,2.39,0.73c0.26,0.1,0.63,0.43,0.61,0.62c-0.03,0.29-0.29,0.67-0.56,0.8
	c-0.36,0.18-0.84,0.29-1.23,0.23c-0.86-0.14-1.74-0.33-2.54-0.65c-1.37-0.55-2.7-1.22-4.1-1.86c0,1.61,0.05,3.17-0.02,4.73
	c-0.04,0.85,0.24,1.14,1.08,1.1c3.05-0.16,6.11-0.22,9.16-0.44c3.49-0.25,6.98-0.58,10.46-0.94c3.92-0.4,7.83-0.85,11.74-1.31
	c0.29-0.03,0.78-0.33,0.79-0.51c0.06-1.73,0.04-3.46,0.04-5.01c-2.08,0.74-4.03,1.49-6.03,2.12c-0.97,0.3-1.99,0.31-2.5-1.1
	c0.52-0.25,1-0.52,1.5-0.7c0.98-0.34,2.04-0.49,2.96-0.94c3.89-1.88,4.5-2.57,3.96-5.77c-0.97,0.47-1.89,1-2.88,1.38
	c-1.04,0.4-2.13,0.66-3.21,0.95c-0.94,0.26-1.7-0.03-2.42-1.03c0.61-0.31,1.13-0.63,1.7-0.83c1.01-0.36,2.11-0.52,3.06-1
	c3.42-1.72,4.37-2.38,3.8-5.45c-2.03,0.71-4.07,1.44-6.13,2.13c-0.95,0.32-1.69-0.05-2.46-1.02c0.66-0.33,1.21-0.67,1.8-0.89
	c1.16-0.43,2.38-0.69,3.5-1.19c3.01-1.36,3.73-2.65,3.3-5.23c-2.05,0.71-4.13,1.44-6.21,2.15c-0.99,0.34-1.67-0.07-2.31-1.11
	c0.62-0.29,1.16-0.58,1.72-0.81c1.57-0.65,3.18-1.21,4.72-1.92c2.04-0.95,2.55-2.65,2.02-4.83c-0.31,0.19-0.6,0.38-0.9,0.55
	c-1.83,1.01-3.73,1.84-5.86,1.85c-0.56,0-1.13-0.39-1.69-0.6c0.01-0.18,0.01-0.35,0.02-0.53c0.68-0.27,1.33-0.62,2.03-0.79
	c2.52-0.58,4.71-1.7,6.46-3.63c1.17-1.3,2.08-1.3,3.23,0.04c1.54,1.79,3.52,2.81,5.77,3.39c0.54,0.14,1.12,0.22,1.6,0.48
	c0.37,0.2,0.62,0.64,0.92,0.97c-0.39,0.23-0.78,0.66-1.16,0.66c-0.9-0.01-1.85-0.1-2.7-0.39c-1.55-0.53-3.05-1.23-4.5-1.83
	c-0.56,2.12,0.13,3.76,2.12,4.72c1.36,0.65,2.79,1.15,4.19,1.71c0.55,0.22,1.14,0.36,1.65,0.65c0.65,0.37,0.57,0.97-0.07,1.13
	c-0.8,0.2-1.74,0.32-2.5,0.09c-1.84-0.56-3.61-1.35-5.4-2.05c-0.48,1.9-0.02,3.59,1.97,4.52c1.64,0.77,3.38,1.34,5.05,2.06
	c0.5,0.22,0.92,0.64,1.37,0.98c-0.58,0.34-1.16,0.67-1.74,1.01c-0.03,0.02-0.08,0-0.12-0.01c-1.79-0.65-3.59-1.28-5.37-1.95
	c-0.38-0.14-0.72-0.4-1.18-0.67c-0.1,1.76-0.35,3.25,1.31,4.34c1.76,1.16,3.58,2.06,5.64,2.52c0.55,0.12,1.05,0.52,1.6,0.8
	c-1.06,1.56-1.06,1.56-8.56-1.27c-0.02,1.49-0.37,2.89,1.19,4.05c1.82,1.35,3.83,2.06,5.93,2.69c0.49,0.15,0.85,0.74,1.27,1.12
	c-0.58,0.26-1.15,0.71-1.73,0.72c-0.73,0.02-1.49-0.25-2.19-0.52c-1.5-0.57-2.98-1.21-4.45-1.82v5.26
	c3.66-0.69,7.25-1.18,10.73-2.09c2.19-0.57,4.33-1.58,6.3-2.73C189.86,109.59,190.91,107.88,190.85,105.31z M69.29,166.13
	c-1.37,1.35-2.74,2.74-4.26,3.9c-1.04,0.79-2.3,0.79-3.29-0.36c-0.09-0.11-0.27-0.15-0.38-0.2c-0.49,0.67-0.87,1.37-1.42,1.9
	c-1.12,1.08-2.39,0.74-2.54-0.76c-0.18-1.85-0.05-3.74-0.05-5.61c0-0.64-0.09-1.3,0.05-1.91c0.08-0.36,0.54-0.64,0.83-0.95
	c0.13,0.33,0.38,0.67,0.37,0.99c-0.07,1.41-0.29,2.82-0.31,4.23c-0.02,1.08,0.17,2.16,0.44,3.26c1.05-1.38,2.09-2.61,2.59-4.33
	c0.6-2.11,1.61-4.18,3.74-5.24c0.57-0.29,1.48-0.3,2.08-0.05c0.78,0.32,1.28,1.09,1.05,2.06c-0.06,0.23-0.23,0.44-0.35,0.66
	c-0.17-0.18-0.41-0.33-0.48-0.54c-0.52-1.49-1.51-1.81-2.47-0.6c-1.29,1.62-2.41,3.4-2.32,5.6c0.02,0.44,0.35,0.99,0.71,1.25
	c0.21,0.15,0.83-0.07,1.16-0.29c2.12-1.38,3.51-3.46,5.16-5.31c2.05-2.29,1.28-4.74,0.96-7.24c-0.04-0.28-0.03-0.56-0.03-0.84
	c0-2.96-0.01-5.92,0.01-8.88c0-0.42,0.1-0.87,0.28-1.24c0.12-0.25,0.47-0.38,0.72-0.57c0.19,0.39,0.55,0.79,0.54,1.18
	c-0.01,0.8-0.32,1.6-0.33,2.4c-0.04,4-0.07,8,0,12c0.06,3.53,0.25,7.05,0.31,10.77C72,172.1,72,172.59,72,173.08
	c0.16-0.01,0.32-0.01,0.47-0.02v-1.59c0.65-2.42,1.29-4.85,1.97-7.27c0.22-0.78,0.48-1.57,0.86-2.27c0.2-0.37,0.72-0.8,1.07-0.78
	c0.37,0.02,0.89,0.5,1.01,0.88c0.36,1.14,0.56,2.33,0.81,3.5c0.28,1.33,0.52,2.67,0.79,4c0.04,0.19,0.2,0.35,0.42,0.73
	c1.32-1.39,2.48-2.57,3.59-3.8c0.54-0.6,1.08-1.25,1.45-1.97c0.26-0.49,0.22-1.14,0.36-1.95c0.21-0.22,0.65-0.68,1.14-1.2
	c0.27,0.21,0.57,0.43,1,0.76c0.84-1.26,1.64-2.51,2.48-3.72c0.62-0.89,0.67-1.87,0.69-2.91c0.05-2.45,0.09-4.91,0.39-7.34
	c0.28-2.21,0.89-4.38,1.36-6.57c0.21-0.99,0.39-2.01,1.8-1.83c1.4,0.18,1.49,1.43,1.54,2.31c0.13,2.31,0.27,4.65-0.61,6.9
	c-0.87,2.24-1.51,4.57-2.55,6.72c-0.5,1.02-0.68,1.96-0.68,3.02c0.01,2.44-0.09,4.88,0.03,7.32c0.11,2.18,0.46,4.36,0.69,6.54
	c0.14,1.33,0.19,2.66,0.4,3.98c0.33,2.07,0.68,4.14,1.15,6.18c0.27,1.16,0.82,2.25,1.15,3.39c0.09,0.32-0.12,0.73-0.23,1.23
	c-1.53-0.92-1.56-2.39-1.9-3.59c-0.63-2.27-1.03-4.61-1.45-6.93c-0.21-1.19-0.23-2.42-0.38-3.63c-0.21-1.62-0.48-3.22-0.71-4.84
	c-0.05-0.35-0.03-0.72-0.03-1.08c0-2.38,0-4.76-0.28-7.23c-0.9,1.15-1.8,2.3-2.52,3.23c0.32,1.41,0.82,2.62,0.8,3.82
	c-0.02,0.87-0.58,1.85-1.17,2.55c-0.79,0.94-2.14,0.46-2.49-0.73c-0.11-0.39-0.28-0.76-0.45-1.21c-0.8,0.92-1.55,1.69-2.19,2.53
	c-0.73,0.96-1.83,1.35-2.71,0.84c-0.69-0.39-1.15-1.47-1.39-2.34c-0.5-1.81-0.8-3.68-1.42-5.56c-0.42,1.27-0.88,2.52-1.24,3.81
	c-0.49,1.75-0.91,3.51-1.34,5.27c-0.29,1.17-0.51,2.35-0.83,3.51c-0.08,0.29-0.42,0.51-0.64,0.76c-0.32-0.29-0.64-0.58-0.95-0.88
	c-0.04-0.04,0-0.15-0.01-0.23c-0.15-3.72-0.3-7.43-0.46-11.33C70.27,164.82,69.87,165.56,69.29,166.13z M91.43,154.74
	c0.53-0.91,1.03-1.83,1.31-2.81c0.62-2.18,1.13-4.4,1.69-6.82c0-1.41,0.17-2.86-0.89-4.31C91.83,145.43,91.77,150.1,91.43,154.74z
	 M85.55,168.8c0.15,0.01,0.29,0.02,0.44,0.04c0.58-0.93,1.35-1.82,0.62-3.25c-0.12-0.37-0.23-0.75-0.35-1.12
	c-0.18,0.02-0.35,0.03-0.53,0.05L85.55,168.8z M166.83,42.59c2.57,0.46,5.06,1.14,7.3,2.55c0.88,0.55,1.74,0.45,2.57-0.15
	c0.81-0.58,1.63-1.15,2.52-1.77c1.12-0.4,2.2-0.69,3.2-1.14c0.46-0.21,1.12-0.83,1.06-1.13c-0.1-0.48-0.66-1.01-1.15-1.23
	c-0.41-0.18-1.07-0.09-1.51,0.12c-1.6,0.78-3.19,1.6-4.72,2.51c-0.58,0.35-0.94,0.45-1.6,0.14c-1.44-0.68-2.93-1.27-4.44-1.74
	c-1.17-0.36-2.42-0.58-3.64-0.64c-0.42-0.02-1.17,0.55-1.24,0.94c-0.07,0.39,0.49,0.93,0.86,1.33
	C166.19,42.56,166.55,42.54,166.83,42.59z M55.37,152.98c0.29-3.35,0.19-6.73,1.43-9.95c0.08-0.21-0.22-0.58-0.34-0.87
	c-0.29,0.13-0.62,0.2-0.85,0.4c-0.19,0.17-0.33,0.47-0.37,0.73c-0.37,2.46-0.77,4.93-1.06,7.4c-0.21,1.76-0.26,3.54-0.4,5.31
	c-0.08,1.02-0.18,2.04-0.33,3.05c-0.34,2.22-0.76,4.42-1.09,6.64c-0.27,1.82-0.43,3.65-0.72,5.47c-0.29,1.8-0.56,3.61-1.06,5.35
	c-0.42,1.46-0.52,3.14-2.2,4.3c-0.83-0.79-1.81-1.46-2.45-2.39c-2.03-2.93-4.21-5.8-5.83-8.95c-3.11-6.06-5.89-12.3-8.79-18.47
	c-0.09-0.2-0.09-0.45-0.11-0.69c-0.12-1.45-0.2-2.9-0.38-4.34c-0.03-0.24-0.48-0.43-0.74-0.64c-0.16,0.3-0.48,0.63-0.45,0.91
	c0.07,0.68,0.32,1.33,0.52,2.13c-0.49-0.07-0.76-0.11-1.48-0.2c0.43,0.92,0.72,1.55,1,2.17c0.11,0.24,0.27,0.49,0.29,0.74
	c0.13,2.21,0.24,4.42,0.34,6.63c0.13,2.69,0.26,5.37,0.38,8.06c0.11,2.58,0.23,5.15,0.31,7.73c0.14,4.4,0.26,8.8,0.39,13.2
	c0,0.08-0.04,0.18,0,0.24c0.27,0.37,0.56,0.73,0.84,1.09l0.39-0.21c0-0.39,0.02-0.77,0-1.16c-0.11-2.17-0.24-4.34-0.34-6.52
	c-0.13-2.53-0.26-5.06-0.35-7.59c-0.13-3.61-0.21-7.23-0.31-10.84c-0.02-0.8,0.04-1.6-0.03-2.4c-0.15-1.76-0.35-3.51-0.54-5.26
	c0.43,0.16,0.58,0.34,0.67,0.55c1.01,2.41,1.87,4.89,3.04,7.21c2.13,4.25,4.35,8.46,6.68,12.6c1.38,2.46,2.91,4.88,5.28,6.7
	c0.73,0.25,1.61,0.85,1.99,0.62c0.93-0.56,1.98-1.37,2.36-2.32c0.64-1.63,0.82-3.45,1.16-5.2c0.17-0.84,0.24-1.7,0.4-2.55
	c0.33-1.79,0.76-3.57,1.03-5.37c0.3-2.05,0.44-4.12,0.71-6.17C54.65,157.76,55.16,155.38,55.37,152.98z M24.73,39.66
	c1.75,0.02,3.23,0.73,4.52,1.87c0.79,0.7,1.67,1.15,2.57,0.39c1.64-1.39,3.39-2.32,5.6-2.32c0.4,0,0.83-0.53,1.17-0.89
	c0.05-0.06-0.34-0.52-0.6-0.84c-2.38-0.59-4.41,0.2-6.29,1.37c-0.68,0.42-1.07,0.33-1.78,0.02c-1.62-0.7-3.33-1.25-5.06-1.61
	c-0.54-0.11-1.75,0.55-1.77,0.92C23.02,39.43,23.91,39.65,24.73,39.66z M52.92,194.44c-0.06,1.2-0.64,2.15-1.82,2.49
	c-1.34,0.39-2.72,0.6-4.25,0.93v4.56h-2.96v-12.54c2.48,0.3,4.99-0.61,7.41,0.78C53.11,191.45,53,192.97,52.92,194.44z
	 M46.79,190.53c0,1.73-0.02,3.48,0.02,5.23c0.01,0.38,0.27,1.08,0.41,1.08c0.47-0.01,0.98-0.19,1.37-0.45
	c0.26-0.17,0.36-0.6,0.61-1.08C50.28,193.02,49.19,190.3,46.79,190.53z M79.23,195.01c-0.03,1.65,0.12,3.28-0.73,4.86
	c-0.78,1.46-2.07,2.08-3.42,2.74c-2.68,1.31-7.32-0.2-8.56-2.9c-1.09-2.37-1-6.82,1.3-8.58c0.89-0.68,1.99-1.08,3.1-1.6
	c1.55,0.12,3.05,0.06,4.44,0.41C77.37,190.45,79.27,192.73,79.23,195.01z M75.23,192.09c-0.5-1.21-1.29-1.89-2.38-1.94
	c-1.07-0.04-2.17,0.4-2.65,1.58c-1.23,3-1.44,6,0.02,8.99c0.89,1.83,2.74,2.29,4.12,0.85c0.65-0.68,0.88-1.76,1.43-2.82
	C75.82,196.52,76.13,194.3,75.23,192.09z M82.53,189.95c-0.05,0.17-0.09,0.33-0.17,0.68c-0.02,3.96-0.01,7.75,0,11.53
	c0.07,0.02,0.12,0.07,0.27,0.23c0.94,0.09,1.76,0.09,2.72,0.09c0-1.33-0.01-2.52,0-3.71c0.03-2.79,0.08-5.57,0.12-8.36
	c-0.09-0.11-0.18-0.22-0.39-0.41C84.14,189.93,83.34,189.94,82.53,189.95z M185.7,73.68c0.08-0.03,0.07-0.68-0.01-0.71
	c-0.68-0.22-1.38-0.37-2.17-0.5c-0.44,0.34-0.78,0.65-1.12,0.96c0.4,0.28,0.81,0.8,1.21,0.8C184.31,74.23,185.02,73.93,185.7,73.68z
	 M101.05,192.29c1.72,2.65,1.43,6.88-0.89,8.97c-0.93,0.83-2.32,1.32-3.58,1.56c-1.16,0.22-2.49,0.13-3.61-0.23
	c-3.11-1.01-4.24-2.78-4.24-6.19c-0.2-3.91,1.76-5.69,4.5-6.77C95.82,188.59,99.49,189.89,101.05,192.29z M98.36,193.01
	c-0.13-0.4-0.22-0.83-0.41-1.2c-0.47-0.93-1.25-1.77-2.25-1.64c-0.91,0.12-2.17,0.62-2.53,1.34c-1.55,3.08-1.62,6.3-0.07,9.47
	c0.62,1.27,2.12,1.71,3.41,1.09c0.93-0.45,1.34-1.21,1.65-2.13C98.92,197.71,98.88,195.47,98.36,193.01z M89.15,189.95
	c-1.37,0-2.67,0-3.97,0.07c0.1,0.18,0.19,0.29,0.36,0.42c1.22,0.25,2.35,0.48,3.6,0.73V189.95z M115.19,196.73h-2.81
	c-0.06,0.1-0.1,0.14-0.1,0.17c-0.02,1-0.03,1.99-0.06,2.99c-0.04,1.13-1.1,2.31-2.19,2.48c-0.73,0.11-2.33-0.84-2.59-1.63
	c-1.01-3.07-1.27-6.17,0.28-9.13c0.35-0.66,1.24-1.39,1.91-1.42c0.61-0.03,1.45,0.73,1.84,1.36c0.49,0.79,0.62,1.8,0.94,2.82
	c0.7,0,1.41,0.04,2.12-0.02c0.24-0.02,0.66-0.36,0.64-0.46c-0.2-0.81-0.31-1.71-0.77-2.37c-1.58-2.28-4.05-2.3-6.36-1.9
	c-2.12,0.37-3.93,1.6-4.34,3.95c-0.28,1.62-0.44,3.3-0.3,4.93c0.08,0.92,0.72,1.88,1.32,2.67c1.27,1.65,3.12,1.78,5.05,1.76
	c1.41-0.01,2.3-0.73,3.06-1.56c0.71,0.64,1.46,1.3,2.36,2.1c0-0.48,0-0.82,0-1.25C115.19,200.33,115.19,198.55,115.19,196.73z
	 M78.87,191.09c1.18-0.18,2.32-0.35,3.49-0.58c0.08-0.23,0.12-0.39,0.09-0.59c-1-0.03-1.92,0-2.83-0.03
	C78.62,189.84,78.56,190.31,78.87,191.09z M185.39,103.94c-0.62-0.17-1.36-0.01-2.02,0.12c-0.21,0.04-0.49,0.46-0.48,0.7
	c0.01,0.24,0.31,0.62,0.53,0.66c0.65,0.13,1.32,0.13,2.07,0.13C186.45,104.69,186.43,104.22,185.39,103.94z M57.11,195.2
	c0-1.64,0-3.1-0.07-4.48c0.01-0.03,0.01-0.06,0.02-0.09c0.07-0.26,0.05-0.36,0.03-0.46c-0.07-0.01-0.14-0.05-0.32-0.17
	c-0.85-0.05-1.58-0.04-2.3-0.02c-0.01,4.08-0.01,8.15,0.09,12.37c0.84,0.13,1.57,0.11,2.31,0.1c0.04-0.07,0.09-0.14,0.21-0.3
	c0.06-0.13,0.05-0.17,0.04-0.21c-0.08-1.56-0.19-3.12-0.23-4.68c0.04,1.56,0.15,3.12,0.26,4.59c0.03-2.03,0.03-3.96,0.03-6.09
	c1.44,0,2.7,0,3.97-0.09c0.02-0.21,0.02-0.33-0.08-0.45C59.71,195.2,58.47,195.2,57.11,195.2z M103.01,94.47
	c0.27,0.18,0.67,0.14,1.12,0.19c0.72-0.21,1.34-0.43,2.02-0.66c-0.75-1.2-2.08-1.58-3.08-1.03c-0.25,0.14-0.59,0.44-0.58,0.65
	C102.51,93.92,102.75,94.3,103.01,94.47z M90.42,92.94c-0.39-0.38-0.77-0.76-1.25-1.16c-0.56,0.08-1.07,0.09-1.46,0.31
	c-0.27,0.15-0.39,0.6-0.57,0.92c0.62,0.27,1.23,0.72,1.86,0.74C89.46,93.76,89.95,93.23,90.42,92.94z M83.91,108.17
	c-0.88-0.5-1.8-0.63-2.65,0.03c-0.2,0.16-0.43,0.62-0.35,0.75c0.53,0.84,1.36,0.97,2.37,0.74c0.45-0.3,0.8-0.57,1.18-0.86
	C84.22,108.52,84.1,108.28,83.91,108.17z M103.26,101.78c0.99-0.47,1.03-0.8,0.09-1.66c-1.17-0.39-2.1-0.26-2.78,0.74
	C101.29,101.89,102.32,102.22,103.26,101.78z M25.05,96.34c-0.55-0.16-1.15-0.13-1.82-0.14c-0.36,0.39-0.64,0.72-0.91,1.06
	c0.41,0.27,0.79,0.68,1.24,0.78c0.47,0.11,1.03,0.02,1.5-0.15c0.25-0.09,0.53-0.51,0.53-0.79C25.59,96.85,25.3,96.41,25.05,96.34z
	 M120.11,114.23c0.56-0.38,1.02-0.75,1.49-1.11c-0.44-0.31-0.83-0.75-1.31-0.89c-0.89-0.27-2.42,0.56-2.14,0.91
	C118.58,113.66,119.37,113.89,120.11,114.23z M91.74,106.12c-0.42,0.35-0.74,0.68-1.05,1.02c0.41,0.27,0.8,0.57,1.23,0.79
	c0.19,0.1,0.52,0.11,0.7,0.01c0.48-0.26,0.91-0.6,1.37-0.91c-0.44-0.31-0.85-0.66-1.32-0.9C92.45,106.01,92.13,106.11,91.74,106.12z
	 M91.69,99.61c-0.38-0.36-0.77-0.72-1.16-1.09c0,0,0.01-0.01-0.09,0.01c-1.2-0.03-2.25,0.05-2.8,1.22
	C89.29,101.53,90.23,101.51,91.69,99.61z M27.23,78.85c-0.41,0.2-0.86,0.53-1.04,0.92c-0.08,0.17,0.43,0.79,0.77,0.92
	c0.43,0.16,1.01,0.15,1.44-0.01c0.41-0.16,0.72-0.61,1.07-0.93c-0.34-0.28-0.67-0.56-1.1-0.87C27.93,78.84,27.52,78.71,27.23,78.85z
	 M95.26,122.55c-0.11,0.02-0.21,0.11-0.39,0.23c-0.58,0.38-0.9,0.74-0.28,1.25c0.63,0.51,2.17,0.55,2.81,0.01
	c0.19-0.16,0.39-0.62,0.3-0.75C97.11,122.41,96.21,122.35,95.26,122.55z M56.93,99.33c-0.24,0.17-0.28,0.64-0.41,0.97
	c0.72,0.21,1.44,0.57,2.16,0.6c0.63,0.03,1.26-0.32,1.01-1.29C58.8,98.8,57.86,98.69,56.93,99.33z M62.26,83.85
	c-0.76,0.42-0.68,0.9-0.06,1.36c0.92,0.7,2.29,0.35,2.96-0.82C64.3,83.35,63.33,83.26,62.26,83.85z M52.97,90.18
	c0.83,0.89,1.78,0.98,2.76,0.54c0.61-0.27,0.8-0.81,0.34-1.35C55.23,88.39,53.4,88.84,52.97,90.18z M50.9,115.18
	c-0.92,0.49-0.92,0.78,0.03,1.55c1.07,0.44,1.95,0.28,2.65-0.53c0.1-0.12,0.02-0.59-0.13-0.7C52.67,114.89,51.8,114.7,50.9,115.18z
	 M35.29,74.88c-0.1,0.96,0.87,1.12,1.79,1.14c0.63-0.28,1.17-0.54,1.71-0.8c0.01-0.14,0.01-0.29,0.02-0.43
	c-0.52-0.28-1.07-0.81-1.57-0.77C36.54,74.08,35.33,74.51,35.29,74.88z M51.58,79.76c-0.4-0.31-0.77-0.65-1.19-0.92
	c-0.14-0.09-0.39-0.02-0.68-0.02c-0.55,0.34-1,0.69-1.45,1.03c0.51,0.28,1.02,0.58,1.55,0.82c0.16,0.08,0.44,0.09,0.58,0
	C50.81,80.4,51.19,80.06,51.58,79.76z M105.97,128.87c0.42,0.35,0.85,0.7,1.37,1.06c0.56-0.08,1.09-0.06,1.46-0.29
	c0.27-0.17,0.33-0.68,0.48-1.04c-0.59-0.24-1.19-0.7-1.76-0.66C106.98,127.97,106.48,128.54,105.97,128.87z M166.24,124.5
	c-0.38,0.02-1.01,0.76-1.02,1.18c-0.01,0.38,0.62,0.91,1.08,1.12c0.42,0.19,1,0.02,1.6-0.02c0.69-0.48,0.97-1.21,0.44-1.65
	C167.82,124.68,166.94,124.47,166.24,124.5z M175.75,127.24c-0.83-0.5-2.05-0.16-2.7,0.75c0.56,0.45,1.12,1.07,1.7,1.09
	c0.53,0.02,1.08-0.6,1.62-0.94C176.17,127.84,176.04,127.42,175.75,127.24z M184.93,119.65c0.4,0.01,0.81-0.48,1.22-0.75
	c-0.27-0.35-0.54-0.69-0.89-1.08c-0.82,0.14-1.55,0.3-2.27,0.54c-0.07,0.02-0.08,0.68,0.01,0.72
	C183.62,119.33,184.28,119.64,184.93,119.65z M163.77,132.18c-0.48,0.07-0.89,0.63-1.33,0.98c0.43,0.34,0.81,0.82,1.29,0.99
	c0.39,0.14,0.92-0.1,1.47-0.2c0.17-0.46,0.42-1.18,0.3-1.25C164.98,132.4,164.33,132.1,163.77,132.18z M106.2,60.18
	c1.8,0.27,3.49,0.74,4.84,2.08c0.8,0.79,1.74,0.94,2.73,0.04c1.52-1.46,3.35-1.9,5.27-2.19c0.43-0.06,0.78-0.59,1.17-0.91
	c-0.41-0.29-0.81-0.78-1.25-0.82c-2.04-0.17-3.98,0.23-5.65,1.48c-0.65,0.48-1.08,0.45-1.77-0.01c-1.7-1.13-3.61-1.71-5.67-1.47
	c-0.44,0.05-0.82,0.55-1.23,0.84c0.4,0.32,0.79,0.64,1.19,0.94C105.92,60.21,106.08,60.16,106.2,60.18z M155.41,80.54
	c0.02-0.27-0.34-0.78-0.56-0.8c-0.87-0.06-1.76-0.02-2.62,0.12c-0.15,0.02-0.21,0.67-0.25,1.08c0.97,0.16,1.87,0.31,2.78,0.32
	C154.99,81.27,155.4,80.81,155.41,80.54z M142.13,85.46c1.39,1.23,2.35,1.2,3.53-0.19C144.5,83.75,142.85,83.88,142.13,85.46z
	 M185.76,163.41c0.28,1.09-0.13,1.59-1.44,2.49c-1.1,0.75-2.1,1.64-3.12,2.5c-0.19,0.16-0.43,0.54-0.36,0.67
	c0.8,1.52,0.18,2.96-0.58,4.12c-1.16,1.75-2.74,3.22-4.92,3.7c-0.39,0.09-1.16-0.13-1.24-0.37c-0.19-0.58-0.32-1.44-0.03-1.88
	c1.11-1.65,2.42-3.18,3.63-4.77c0.18-0.24,0.25-0.56,0.28-0.87c-1.11-0.24-2.12-0.56-3.15-0.64c-2.82-0.22-4.1-2.23-2.9-4.8
	c1.07-2.3,2.91-3.78,5.28-4.6c0.58-0.2,1.2-0.39,1.8-0.4c2.57-0.04,3.36,1.98,2.74,3.79c-0.44,1.27-1.47,2.34-2.3,3.46
	c-0.14,0.19-0.58,0.15-0.89,0.22c0.08-0.27,0.11-0.57,0.25-0.81c0.53-0.91,1.24-1.76,1.58-2.73c0.25-0.71,0.32-1.81-0.08-2.32
	c-0.33-0.42-1.56-0.53-2.19-0.27c-2.1,0.87-3.98,2.12-5.07,4.24c-0.99,1.92-0.59,2.79,1.54,3.26c1.49,0.32,3.02,0.76,4.5,0.68
	c0.91-0.05,1.8-0.96,2.65-1.55c0.71-0.49,1.35-1.09,2.03-1.62C184.41,164.39,185.06,163.92,185.76,163.41z M179.88,169.88
	c0-0.01-0.3-0.1-0.59-0.03c-1.68,1.73-3.37,3.45-4.56,5.92c2.17-0.61,3.54-1.81,4.48-3.43
	C179.63,171.63,179.69,170.71,179.88,169.88z M58.27,60.45c-1.66-1.02-3.44-1.76-5.42-1.55c-0.53,0.06-1.01,0.67-1.49,1.11
	c0.57,0.37,1.13,0.89,1.68,0.89c2.02,0.01,3.57,0.89,5.05,2.15c0.38,0.32,1.34,0.46,1.71,0.21c1.83-1.24,3.63-2.44,5.96-2.53
	c0.39-0.02,0.76-0.65,1.13-1c-0.46-0.3-0.89-0.8-1.38-0.85c-2.08-0.22-3.93,0.59-5.65,1.61C59.22,60.88,58.83,60.79,58.27,60.45z
	 M116.03,123.48c-0.19,0.18-0.29,0.79-0.23,0.83c0.56,0.31,1.17,0.73,1.76,0.73c0.62,0,1.5-0.12,1.46-1.22
	C118.03,122.85,116.85,122.72,116.03,123.48z M103.33,115.46c-0.78-0.13-1.58-0.12-2.47-0.11c-0.56,0.79-0.35,1.33,0.43,1.65
	c0.86,0.34,2.29-0.06,2.42-0.7C103.77,116.03,103.51,115.49,103.33,115.46z M125.31,128.39c-0.13,0.14-0.04,0.77,0.06,0.79
	c0.72,0.21,1.49,0.5,2.2,0.42c0.95-0.11,1.04-0.69,0.32-1.64C126.87,127.53,126.01,127.65,125.31,128.39z M146.25,132.67
	c-0.85-0.57-1.74-0.5-2.55,0.1c-0.21,0.16-0.46,0.59-0.38,0.74c0.41,0.83,1.19,0.96,2.03,0.85c0.08-0.01,0.15-0.05,0.32-0.1
	C146.66,133.76,146.89,133.09,146.25,132.67z M155.32,127.57c-0.92-0.26-1.88-0.18-2.46,0.8c0.92,1.33,1.77,1.45,3.41,0.44
	C155.99,128.33,155.73,127.69,155.32,127.57z M156.51,121.96c-0.6,0.28-1.1,0.56-1.89,1.01c0.77,0.43,1.18,0.84,1.58,0.83
	c0.71-0.02,1.43-0.26,2.12-0.48c0.12-0.04,0.19-0.69,0.14-0.71C157.85,122.34,157.22,122.16,156.51,121.96z M135.81,123.64
	c0.91,1.22,2.01,1.42,2.94,0.53c0.2-0.19,0.21-0.92,0.02-1.13C138.1,122.31,136.39,122.65,135.81,123.64z M60.06,157.5
	c0.02-0.12-0.03-0.17-0.15-0.15c-1.14,0.54-2.18,1.59-2.73,2.73c-0.02,0.12,0.03,0.17,0.15,0.15
	C58.48,159.68,59.52,158.64,60.06,157.5z"/>
</svg>
